<mxfile host="" modified="2020-05-24T15:21:41.060Z" agent="5.0 (X11; Linux x86_64) AppleWebKit/537.36 (KHTML, like Gecko) Code/1.45.0 Chrome/78.0.3904.130 Electron/7.2.4 Safari/537.36" version="13.1.3" etag="lrwgP8mNOWNbAz78NI_h" pages="2">
            <diagram id="diagramid" name="Diagram">
              <mxGraphModel><root><mxCell id="0"/><mxCell id="1" parent="0"/><mxCell id="2" value="LogGroup" style="outlineConnect=0;fontColor=#B3B3B3;gradientColor=#F34482;gradientDirection=north;fillColor=#BC1356;strokeColor=#ffffff;dashed=0;verticalLabelPosition=bottom;verticalAlign=top;align=center;html=1;fontSize=12;fontStyle=0;aspect=fixed;shape=mxgraph.aws4.resourceIcon;resIcon=mxgraph.aws4.cloudwatch;" vertex="1" parent="1"><mxGeometry x="1000" width="50" height="50" as="geometry"/></mxCell><mxCell id="3" value="TaskDefinition" style="outlineConnect=0;fontColor=#B3B3B3;gradientColor=#F78E04;gradientDirection=north;fillColor=#D05C17;strokeColor=#ffffff;dashed=0;verticalLabelPosition=bottom;verticalAlign=top;align=center;html=1;fontSize=12;fontStyle=0;aspect=fixed;shape=mxgraph.aws4.resourceIcon;resIcon=mxgraph.aws4.ecs;" vertex="1" parent="1"><mxGeometry x="750" width="50" height="50" as="geometry"/></mxCell><mxCell id="4" value="ExecutionRole" style="outlineConnect=0;fontColor=#B3B3B3;gradientColor=#F54749;gradientDirection=north;fillColor=#C7131F;strokeColor=#ffffff;dashed=0;verticalLabelPosition=bottom;verticalAlign=top;align=center;html=1;fontSize=12;fontStyle=0;aspect=fixed;shape=mxgraph.aws4.resourceIcon;resIcon=mxgraph.aws4.role;" vertex="1" parent="1"><mxGeometry x="1000" y="100" width="50" height="50" as="geometry"/></mxCell><mxCell id="5" value="TaskRole" style="outlineConnect=0;fontColor=#B3B3B3;gradientColor=#F54749;gradientDirection=north;fillColor=#C7131F;strokeColor=#ffffff;dashed=0;verticalLabelPosition=bottom;verticalAlign=top;align=center;html=1;fontSize=12;fontStyle=0;aspect=fixed;shape=mxgraph.aws4.resourceIcon;resIcon=mxgraph.aws4.role;" vertex="1" parent="1"><mxGeometry x="1000" y="200" width="50" height="50" as="geometry"/></mxCell><mxCell id="6" value="DiscoveryService" style="outlineConnect=0;fontColor=#B3B3B3;gradientColor=#aaaaaa;gradientDirection=north;fillColor=#aaaaaa;strokeColor=#ffffff;dashed=0;verticalLabelPosition=bottom;verticalAlign=top;align=center;html=1;fontSize=12;fontStyle=0;aspect=fixed;shape=mxgraph.aws4.resourceIcon;resIcon=mxgraph.aws4.servicediscovery;" vertex="1" parent="1"><mxGeometry x="750" y="200" width="50" height="50" as="geometry"/></mxCell><mxCell id="7" value="DynamicDesiredCountAction" style="outlineConnect=0;fontColor=#B3B3B3;gradientColor=#aaaaaa;gradientDirection=north;fillColor=#aaaaaa;strokeColor=#ffffff;dashed=0;verticalLabelPosition=bottom;verticalAlign=top;align=center;html=1;fontSize=12;fontStyle=0;aspect=fixed;shape=mxgraph.aws4.resourceIcon;resIcon=mxgraph.aws4.dynamicdesiredcountfunction;" vertex="1" parent="1"><mxGeometry x="750" y="100" width="50" height="50" as="geometry"/></mxCell><mxCell id="8" value="DynamicDesiredCountFunction" style="outlineConnect=0;fontColor=#B3B3B3;gradientColor=#F78E04;gradientDirection=north;fillColor=#D05C17;strokeColor=#ffffff;dashed=0;verticalLabelPosition=bottom;verticalAlign=top;align=center;html=1;fontSize=12;fontStyle=0;aspect=fixed;shape=mxgraph.aws4.resourceIcon;resIcon=mxgraph.aws4.lambda;" vertex="1" parent="1"><mxGeometry x="1000" y="350" width="50" height="50" as="geometry"/></mxCell><mxCell id="9" value="DynamicDesiredCountFunctionRole" style="outlineConnect=0;fontColor=#B3B3B3;gradientColor=#F54749;gradientDirection=north;fillColor=#C7131F;strokeColor=#ffffff;dashed=0;verticalLabelPosition=bottom;verticalAlign=top;align=center;html=1;fontSize=12;fontStyle=0;aspect=fixed;shape=mxgraph.aws4.resourceIcon;resIcon=mxgraph.aws4.role;" vertex="1" parent="1"><mxGeometry x="1250" y="400" width="50" height="50" as="geometry"/></mxCell><mxCell id="10" value="AutoScalingRole" style="outlineConnect=0;fontColor=#B3B3B3;gradientColor=#F54749;gradientDirection=north;fillColor=#C7131F;strokeColor=#ffffff;dashed=0;verticalLabelPosition=bottom;verticalAlign=top;align=center;html=1;fontSize=12;fontStyle=0;aspect=fixed;shape=mxgraph.aws4.resourceIcon;resIcon=mxgraph.aws4.role;" vertex="1" parent="1"><mxGeometry x="500" y="225" width="50" height="50" as="geometry"/></mxCell><mxCell id="11" value="AutoScalingTarget" style="outlineConnect=0;fontColor=#B3B3B3;gradientColor=#aaaaaa;gradientDirection=north;fillColor=#aaaaaa;strokeColor=#ffffff;dashed=0;verticalLabelPosition=bottom;verticalAlign=top;align=center;html=1;fontSize=12;fontStyle=0;aspect=fixed;shape=mxgraph.aws4.resourceIcon;resIcon=mxgraph.aws4.applicationautoscaling;" vertex="1" parent="1"><mxGeometry x="250" y="175" width="50" height="50" as="geometry"/></mxCell><mxCell id="12" value="AutoScalingPolicyECSServiceAverageCPUUtilization" style="outlineConnect=0;fontColor=#B3B3B3;gradientColor=#aaaaaa;gradientDirection=north;fillColor=#aaaaaa;strokeColor=#ffffff;dashed=0;verticalLabelPosition=bottom;verticalAlign=top;align=center;html=1;fontSize=12;fontStyle=0;aspect=fixed;shape=mxgraph.aws4.resourceIcon;resIcon=mxgraph.aws4.applicationautoscaling;" vertex="1" parent="1"><mxGeometry y="175" width="50" height="50" as="geometry"/></mxCell><mxCell id="13" value="AutoScalingPolicyECSServiceAverageMemoryUtilization" style="outlineConnect=0;fontColor=#B3B3B3;gradientColor=#aaaaaa;gradientDirection=north;fillColor=#aaaaaa;strokeColor=#ffffff;dashed=0;verticalLabelPosition=bottom;verticalAlign=top;align=center;html=1;fontSize=12;fontStyle=0;aspect=fixed;shape=mxgraph.aws4.resourceIcon;resIcon=mxgraph.aws4.applicationautoscaling;" vertex="1" parent="1"><mxGeometry y="275" width="50" height="50" as="geometry"/></mxCell><mxCell id="14" value="EnvControllerAction" style="outlineConnect=0;fontColor=#B3B3B3;gradientColor=#aaaaaa;gradientDirection=north;fillColor=#aaaaaa;strokeColor=#ffffff;dashed=0;verticalLabelPosition=bottom;verticalAlign=top;align=center;html=1;fontSize=12;fontStyle=0;aspect=fixed;shape=mxgraph.aws4.resourceIcon;resIcon=mxgraph.aws4.envcontrollerfunction;" vertex="1" parent="1"><mxGeometry x="1000" y="520.8333333333334" width="50" height="50" as="geometry"/></mxCell><mxCell id="15" value="EnvControllerFunction" style="outlineConnect=0;fontColor=#B3B3B3;gradientColor=#F78E04;gradientDirection=north;fillColor=#D05C17;strokeColor=#ffffff;dashed=0;verticalLabelPosition=bottom;verticalAlign=top;align=center;html=1;fontSize=12;fontStyle=0;aspect=fixed;shape=mxgraph.aws4.resourceIcon;resIcon=mxgraph.aws4.lambda;" vertex="1" parent="1"><mxGeometry x="1250" y="500" width="50" height="50" as="geometry"/></mxCell><mxCell id="16" value="EnvControllerRole" style="outlineConnect=0;fontColor=#B3B3B3;gradientColor=#F54749;gradientDirection=north;fillColor=#C7131F;strokeColor=#ffffff;dashed=0;verticalLabelPosition=bottom;verticalAlign=top;align=center;html=1;fontSize=12;fontStyle=0;aspect=fixed;shape=mxgraph.aws4.resourceIcon;resIcon=mxgraph.aws4.role;" vertex="1" parent="1"><mxGeometry x="1500" y="400" width="50" height="50" as="geometry"/></mxCell><mxCell id="17" value="Service" style="outlineConnect=0;fontColor=#B3B3B3;gradientColor=#F78E04;gradientDirection=north;fillColor=#D05C17;strokeColor=#ffffff;dashed=0;verticalLabelPosition=bottom;verticalAlign=top;align=center;html=1;fontSize=12;fontStyle=0;aspect=fixed;shape=mxgraph.aws4.resourceIcon;resIcon=mxgraph.aws4.ecs;" vertex="1" parent="1"><mxGeometry x="500" y="125" width="50" height="50" as="geometry"/></mxCell><mxCell id="18" value="TargetGroup" style="outlineConnect=0;fontColor=#B3B3B3;gradientColor=#aaaaaa;gradientDirection=north;fillColor=#aaaaaa;strokeColor=#ffffff;dashed=0;verticalLabelPosition=bottom;verticalAlign=top;align=center;html=1;fontSize=12;fontStyle=0;aspect=fixed;shape=mxgraph.aws4.resourceIcon;resIcon=mxgraph.aws4.elasticloadbalancingv2;" vertex="1" parent="1"><mxGeometry x="750" y="400" width="50" height="50" as="geometry"/></mxCell><mxCell id="19" value="RulePriorityFunction" style="outlineConnect=0;fontColor=#B3B3B3;gradientColor=#F78E04;gradientDirection=north;fillColor=#D05C17;strokeColor=#ffffff;dashed=0;verticalLabelPosition=bottom;verticalAlign=top;align=center;html=1;fontSize=12;fontStyle=0;aspect=fixed;shape=mxgraph.aws4.resourceIcon;resIcon=mxgraph.aws4.lambda;" vertex="1" parent="1"><mxGeometry x="500" y="475" width="50" height="50" as="geometry"/></mxCell><mxCell id="20" value="RulePriorityFunctionRole" style="outlineConnect=0;fontColor=#B3B3B3;gradientColor=#F54749;gradientDirection=north;fillColor=#C7131F;strokeColor=#ffffff;dashed=0;verticalLabelPosition=bottom;verticalAlign=top;align=center;html=1;fontSize=12;fontStyle=0;aspect=fixed;shape=mxgraph.aws4.resourceIcon;resIcon=mxgraph.aws4.role;" vertex="1" parent="1"><mxGeometry x="750" y="600" width="50" height="50" as="geometry"/></mxCell><mxCell id="21" value="HTTPSRulePriorityAction" style="outlineConnect=0;fontColor=#B3B3B3;gradientColor=#aaaaaa;gradientDirection=north;fillColor=#aaaaaa;strokeColor=#ffffff;dashed=0;verticalLabelPosition=bottom;verticalAlign=top;align=center;html=1;fontSize=12;fontStyle=0;aspect=fixed;shape=mxgraph.aws4.resourceIcon;resIcon=mxgraph.aws4.rulepriorityfunction;" vertex="1" parent="1"><mxGeometry x="250" y="533.3333333333334" width="50" height="50" as="geometry"/></mxCell><mxCell id="22" value="HTTPRuleWithDomainPriorityAction" style="outlineConnect=0;fontColor=#B3B3B3;gradientColor=#aaaaaa;gradientDirection=north;fillColor=#aaaaaa;strokeColor=#ffffff;dashed=0;verticalLabelPosition=bottom;verticalAlign=top;align=center;html=1;fontSize=12;fontStyle=0;aspect=fixed;shape=mxgraph.aws4.resourceIcon;resIcon=mxgraph.aws4.rulepriorityfunction;" vertex="1" parent="1"><mxGeometry x="250" y="325" width="50" height="50" as="geometry"/></mxCell><mxCell id="23" value="HTTPListenerRuleWithDomain" style="outlineConnect=0;fontColor=#B3B3B3;gradientColor=#aaaaaa;gradientDirection=north;fillColor=#aaaaaa;strokeColor=#ffffff;dashed=0;verticalLabelPosition=bottom;verticalAlign=top;align=center;html=1;fontSize=12;fontStyle=0;aspect=fixed;shape=mxgraph.aws4.resourceIcon;resIcon=mxgraph.aws4.elasticloadbalancingv2;" vertex="1" parent="1"><mxGeometry y="375" width="50" height="50" as="geometry"/></mxCell><mxCell id="24" value="HTTPSListenerRule" style="outlineConnect=0;fontColor=#B3B3B3;gradientColor=#aaaaaa;gradientDirection=north;fillColor=#aaaaaa;strokeColor=#ffffff;dashed=0;verticalLabelPosition=bottom;verticalAlign=top;align=center;html=1;fontSize=12;fontStyle=0;aspect=fixed;shape=mxgraph.aws4.resourceIcon;resIcon=mxgraph.aws4.elasticloadbalancingv2;" vertex="1" parent="1"><mxGeometry y="475" width="50" height="50" as="geometry"/></mxCell><mxCell id="25" value="AddonsStack" style="outlineConnect=0;fontColor=#B3B3B3;gradientColor=#F34482;gradientDirection=north;fillColor=#BC1356;strokeColor=#ffffff;dashed=0;verticalLabelPosition=bottom;verticalAlign=top;align=center;html=1;fontSize=12;fontStyle=0;aspect=fixed;shape=mxgraph.aws4.resourceIcon;resIcon=mxgraph.aws4.cloudformation;" vertex="1" parent="1"><mxGeometry x="1250" y="300" width="50" height="50" as="geometry"/></mxCell><mxCell id="26" value="iam  aws&#xA;policy/service-role/amazonecstaskexecutionrolepolicy" style="outlineConnect=0;fontColor=#B3B3B3;gradientColor=#aaaaaa;gradientDirection=north;fillColor=#aaaaaa;strokeColor=#ffffff;dashed=0;verticalLabelPosition=bottom;verticalAlign=top;align=center;html=1;fontSize=12;fontStyle=0;aspect=fixed;shape=mxgraph.aws4.resourceIcon;resIcon=mxgraph.aws4.identity_and_access_management;" vertex="1" parent="1"><mxGeometry x="1250" y="100" width="50" height="50" as="geometry"/></mxCell><mxCell id="27" value="iam  &#xA;role/*" style="outlineConnect=0;fontColor=#B3B3B3;gradientColor=#aaaaaa;gradientDirection=north;fillColor=#aaaaaa;strokeColor=#ffffff;dashed=0;verticalLabelPosition=bottom;verticalAlign=top;align=center;html=1;fontSize=12;fontStyle=0;aspect=fixed;shape=mxgraph.aws4.resourceIcon;resIcon=mxgraph.aws4.identity_and_access_management;" vertex="1" parent="1"><mxGeometry x="1250" y="200" width="50" height="50" as="geometry"/></mxCell><mxCell id="28" value="iam  aws&#xA;policy/service-role/awslambdabasicexecutionrole" style="outlineConnect=0;fontColor=#B3B3B3;gradientColor=#aaaaaa;gradientDirection=north;fillColor=#aaaaaa;strokeColor=#ffffff;dashed=0;verticalLabelPosition=bottom;verticalAlign=top;align=center;html=1;fontSize=12;fontStyle=0;aspect=fixed;shape=mxgraph.aws4.resourceIcon;resIcon=mxgraph.aws4.identity_and_access_management;" vertex="1" parent="1"><mxGeometry x="1750" y="450" width="50" height="50" as="geometry"/></mxCell><mxCell id="29" value="ecs  &#xA;cluster/${clustername}" style="outlineConnect=0;fontColor=#B3B3B3;gradientColor=#aaaaaa;gradientDirection=north;fillColor=#aaaaaa;strokeColor=#ffffff;dashed=0;verticalLabelPosition=bottom;verticalAlign=top;align=center;html=1;fontSize=12;fontStyle=0;aspect=fixed;shape=mxgraph.aws4.resourceIcon;resIcon=mxgraph.aws4.ecs;" vertex="1" parent="1"><mxGeometry x="1500" y="300" width="50" height="50" as="geometry"/></mxCell><mxCell id="30" value="iam  aws&#xA;policy/service-role/amazonec2containerserviceautoscalerole" style="outlineConnect=0;fontColor=#B3B3B3;gradientColor=#aaaaaa;gradientDirection=north;fillColor=#aaaaaa;strokeColor=#ffffff;dashed=0;verticalLabelPosition=bottom;verticalAlign=top;align=center;html=1;fontSize=12;fontStyle=0;aspect=fixed;shape=mxgraph.aws4.resourceIcon;resIcon=mxgraph.aws4.identity_and_access_management;" vertex="1" parent="1"><mxGeometry x="750" y="300" width="50" height="50" as="geometry"/></mxCell><mxCell id="31" value="cloudformation  &#xA;stack/${appname}-${envname}/*" style="outlineConnect=0;fontColor=#B3B3B3;gradientColor=#aaaaaa;gradientDirection=north;fillColor=#aaaaaa;strokeColor=#ffffff;dashed=0;verticalLabelPosition=bottom;verticalAlign=top;align=center;html=1;fontSize=12;fontStyle=0;aspect=fixed;shape=mxgraph.aws4.resourceIcon;resIcon=mxgraph.aws4.cloudformation;" vertex="1" parent="1"><mxGeometry x="1750" y="250" width="50" height="50" as="geometry"/></mxCell><mxCell id="32" value="iam  &#xA;role/${appname}-${envname}-cfnexecutionrole" style="outlineConnect=0;fontColor=#B3B3B3;gradientColor=#aaaaaa;gradientDirection=north;fillColor=#aaaaaa;strokeColor=#ffffff;dashed=0;verticalLabelPosition=bottom;verticalAlign=top;align=center;html=1;fontSize=12;fontStyle=0;aspect=fixed;shape=mxgraph.aws4.resourceIcon;resIcon=mxgraph.aws4.identity_and_access_management;" vertex="1" parent="1"><mxGeometry x="1750" y="350" width="50" height="50" as="geometry"/></mxCell><mxCell id="LogGroup|TaskDefinition" value="awslogs-group" style="edgeStyle=orthogonalEdgeStyle;rounded=1;orthogonalLoop=1;jettySize=auto;html=1;labelBackgroundColor=none;fontColor=#EA6B66;noEdgeStyle=1;orthogonal=1;" edge="1" parent="1" source="3" target="2"><mxGeometry relative="1" as="geometry"><Array as="points"><mxPoint x="812" y="9"/><mxPoint x="988" y="25"/></Array></mxGeometry></mxCell><mxCell id="ExecutionRole|TaskDefinition" value="ExecutionRoleArn" style="edgeStyle=orthogonalEdgeStyle;rounded=1;orthogonalLoop=1;jettySize=auto;html=1;labelBackgroundColor=none;fontColor=#EA6B66;noEdgeStyle=1;orthogonal=1;" edge="1" parent="1" source="3" target="4"><mxGeometry relative="1" as="geometry"><Array as="points"><mxPoint x="814" y="17"/><mxPoint x="988" y="125"/></Array></mxGeometry></mxCell><mxCell id="TaskRole|TaskDefinition" value="TaskRoleArn" style="edgeStyle=orthogonalEdgeStyle;rounded=1;orthogonalLoop=1;jettySize=auto;html=1;labelBackgroundColor=none;fontColor=#EA6B66;noEdgeStyle=1;orthogonal=1;" edge="1" parent="1" source="3" target="5"><mxGeometry relative="1" as="geometry"><Array as="points"><mxPoint x="816" y="25"/><mxPoint x="988" y="225"/></Array></mxGeometry></mxCell><mxCell id="AddonsStack|TaskDefinition" value="Value" style="edgeStyle=orthogonalEdgeStyle;rounded=1;orthogonalLoop=1;jettySize=auto;html=1;labelBackgroundColor=none;fontColor=#EA6B66;noEdgeStyle=1;orthogonal=1;" edge="1" parent="1" source="3" target="25"><mxGeometry relative="1" as="geometry"><Array as="points"><mxPoint x="814" y="33"/><mxPoint x="900" y="300"/><mxPoint x="1150" y="300"/><mxPoint x="1238" y="335"/></Array></mxGeometry></mxCell><mxCell id="EnvControllerAction|TaskDefinition" value="Value" style="edgeStyle=orthogonalEdgeStyle;rounded=1;orthogonalLoop=1;jettySize=auto;html=1;labelBackgroundColor=none;fontColor=#EA6B66;noEdgeStyle=1;orthogonal=1;" edge="1" parent="1" source="3" target="14"><mxGeometry relative="1" as="geometry"><Array as="points"><mxPoint x="812" y="41"/><mxPoint x="988" y="529.8333333333334"/></Array></mxGeometry></mxCell><mxCell id="iam  aws&#xA;policy/service-role/amazonecstaskexecutionrolepolicy|ExecutionRole" value="ManagedPolicyArns" style="edgeStyle=orthogonalEdgeStyle;rounded=1;orthogonalLoop=1;jettySize=auto;html=1;labelBackgroundColor=none;fontColor=#EA6B66;noEdgeStyle=1;orthogonal=1;" edge="1" parent="1" source="4" target="26"><mxGeometry relative="1" as="geometry"><Array as="points"><mxPoint x="1062" y="125"/><mxPoint x="1238" y="125"/></Array></mxGeometry></mxCell><mxCell id="iam  &#xA;role/*|TaskRole" value="PolicyDocument" style="edgeStyle=orthogonalEdgeStyle;rounded=1;orthogonalLoop=1;jettySize=auto;html=1;labelBackgroundColor=none;fontColor=#EA6B66;noEdgeStyle=1;orthogonal=1;" edge="1" parent="1" source="5" target="27"><mxGeometry relative="1" as="geometry"><Array as="points"><mxPoint x="1062" y="215"/><mxPoint x="1238" y="225"/></Array></mxGeometry></mxCell><mxCell id="AddonsStack|TaskRole" value="ManagedPolicyArns" style="edgeStyle=orthogonalEdgeStyle;rounded=1;orthogonalLoop=1;jettySize=auto;html=1;labelBackgroundColor=none;fontColor=#EA6B66;noEdgeStyle=1;orthogonal=1;" edge="1" parent="1" source="5" target="25"><mxGeometry relative="1" as="geometry"><Array as="points"><mxPoint x="1062" y="235"/><mxPoint x="1238" y="315"/></Array></mxGeometry></mxCell><mxCell id="DynamicDesiredCountFunction|DynamicDesiredCountAction" value="ServiceToken" style="edgeStyle=orthogonalEdgeStyle;rounded=1;orthogonalLoop=1;jettySize=auto;html=1;labelBackgroundColor=none;fontColor=#EA6B66;noEdgeStyle=1;orthogonal=1;" edge="1" parent="1" source="7" target="8"><mxGeometry relative="1" as="geometry"><Array as="points"><mxPoint x="812" y="125"/><mxPoint x="988" y="375"/></Array></mxGeometry></mxCell><mxCell id="DynamicDesiredCountFunctionRole|DynamicDesiredCountFunction" value="Role" style="edgeStyle=orthogonalEdgeStyle;rounded=1;orthogonalLoop=1;jettySize=auto;html=1;labelBackgroundColor=none;fontColor=#EA6B66;noEdgeStyle=1;orthogonal=1;" edge="1" parent="1" source="8" target="9"><mxGeometry relative="1" as="geometry"><Array as="points"><mxPoint x="1062" y="375"/><mxPoint x="1238" y="425"/></Array></mxGeometry></mxCell><mxCell id="iam  aws&#xA;policy/service-role/awslambdabasicexecutionrole|DynamicDesiredCountFunctionRole" value="ManagedPolicyArns" style="edgeStyle=orthogonalEdgeStyle;rounded=1;orthogonalLoop=1;jettySize=auto;html=1;labelBackgroundColor=none;fontColor=#EA6B66;noEdgeStyle=1;orthogonal=1;" edge="1" parent="1" source="9" target="28"><mxGeometry relative="1" as="geometry"><Array as="points"><mxPoint x="1312" y="415"/><mxPoint x="1400" y="250"/><mxPoint x="1650" y="250"/><mxPoint x="1738" y="461.6666666666667"/></Array></mxGeometry></mxCell><mxCell id="ecs  &#xA;cluster/${clustername}|DynamicDesiredCountFunctionRole" value="PolicyDocument" style="edgeStyle=orthogonalEdgeStyle;rounded=1;orthogonalLoop=1;jettySize=auto;html=1;labelBackgroundColor=none;fontColor=#EA6B66;noEdgeStyle=1;orthogonal=1;" edge="1" parent="1" source="9" target="29"><mxGeometry relative="1" as="geometry"><Array as="points"><mxPoint x="1312" y="435"/><mxPoint x="1488" y="325"/></Array></mxGeometry></mxCell><mxCell id="iam  aws&#xA;policy/service-role/amazonec2containerserviceautoscalerole|AutoScalingRole" value="ManagedPolicyArns" style="edgeStyle=orthogonalEdgeStyle;rounded=1;orthogonalLoop=1;jettySize=auto;html=1;labelBackgroundColor=none;fontColor=#EA6B66;noEdgeStyle=1;orthogonal=1;" edge="1" parent="1" source="10" target="30"><mxGeometry relative="1" as="geometry"><Array as="points"><mxPoint x="562" y="250"/><mxPoint x="738" y="325"/></Array></mxGeometry></mxCell><mxCell id="Service|AutoScalingTarget" value="ResourceId" style="edgeStyle=orthogonalEdgeStyle;rounded=1;orthogonalLoop=1;jettySize=auto;html=1;labelBackgroundColor=none;fontColor=#EA6B66;noEdgeStyle=1;orthogonal=1;" edge="1" parent="1" source="11" target="17"><mxGeometry relative="1" as="geometry"><Array as="points"><mxPoint x="312" y="190"/><mxPoint x="488" y="150"/></Array></mxGeometry></mxCell><mxCell id="AutoScalingRole|AutoScalingTarget" value="RoleARN" style="edgeStyle=orthogonalEdgeStyle;rounded=1;orthogonalLoop=1;jettySize=auto;html=1;labelBackgroundColor=none;fontColor=#EA6B66;noEdgeStyle=1;orthogonal=1;" edge="1" parent="1" source="11" target="10"><mxGeometry relative="1" as="geometry"><Array as="points"><mxPoint x="312" y="210"/><mxPoint x="488" y="250"/></Array></mxGeometry></mxCell><mxCell id="AutoScalingTarget|AutoScalingPolicyECSServiceAverageCPUUtilization" value="ScalingTargetId" style="edgeStyle=orthogonalEdgeStyle;rounded=1;orthogonalLoop=1;jettySize=auto;html=1;labelBackgroundColor=none;fontColor=#EA6B66;noEdgeStyle=1;orthogonal=1;" edge="1" parent="1" source="12" target="11"><mxGeometry relative="1" as="geometry"><Array as="points"><mxPoint x="62" y="200"/><mxPoint x="238" y="190"/></Array></mxGeometry></mxCell><mxCell id="AutoScalingTarget|AutoScalingPolicyECSServiceAverageMemoryUtilization" value="ScalingTargetId" style="edgeStyle=orthogonalEdgeStyle;rounded=1;orthogonalLoop=1;jettySize=auto;html=1;labelBackgroundColor=none;fontColor=#EA6B66;noEdgeStyle=1;orthogonal=1;" edge="1" parent="1" source="13" target="11"><mxGeometry relative="1" as="geometry"><Array as="points"><mxPoint x="62" y="300"/><mxPoint x="238" y="210"/></Array></mxGeometry></mxCell><mxCell id="EnvControllerFunction|EnvControllerAction" value="ServiceToken" style="edgeStyle=orthogonalEdgeStyle;rounded=1;orthogonalLoop=1;jettySize=auto;html=1;labelBackgroundColor=none;fontColor=#EA6B66;noEdgeStyle=1;orthogonal=1;" edge="1" parent="1" source="14" target="15"><mxGeometry relative="1" as="geometry"><Array as="points"><mxPoint x="1062" y="545.8333333333334"/><mxPoint x="1238" y="525"/></Array></mxGeometry></mxCell><mxCell id="EnvControllerRole|EnvControllerFunction" value="Role" style="edgeStyle=orthogonalEdgeStyle;rounded=1;orthogonalLoop=1;jettySize=auto;html=1;labelBackgroundColor=none;fontColor=#EA6B66;noEdgeStyle=1;orthogonal=1;" edge="1" parent="1" source="15" target="16"><mxGeometry relative="1" as="geometry"><Array as="points"><mxPoint x="1312" y="525"/><mxPoint x="1488" y="425"/></Array></mxGeometry></mxCell><mxCell id="cloudformation  &#xA;stack/${appname}-${envname}/*|EnvControllerRole" value="PolicyDocument" style="edgeStyle=orthogonalEdgeStyle;rounded=1;orthogonalLoop=1;jettySize=auto;html=1;labelBackgroundColor=none;fontColor=#EA6B66;noEdgeStyle=1;orthogonal=1;" edge="1" parent="1" source="16" target="31"><mxGeometry relative="1" as="geometry"><Array as="points"><mxPoint x="1562" y="411.6666666666667"/><mxPoint x="1738" y="275"/></Array></mxGeometry></mxCell><mxCell id="iam  &#xA;role/${appname}-${envname}-cfnexecutionrole|EnvControllerRole" value="PolicyDocument" style="edgeStyle=orthogonalEdgeStyle;rounded=1;orthogonalLoop=1;jettySize=auto;html=1;labelBackgroundColor=none;fontColor=#EA6B66;noEdgeStyle=1;orthogonal=1;" edge="1" parent="1" source="16" target="32"><mxGeometry relative="1" as="geometry"><Array as="points"><mxPoint x="1564" y="425"/><mxPoint x="1738" y="375"/></Array></mxGeometry></mxCell><mxCell id="iam  aws&#xA;policy/service-role/awslambdabasicexecutionrole|EnvControllerRole" value="ManagedPolicyArns" style="edgeStyle=orthogonalEdgeStyle;rounded=1;orthogonalLoop=1;jettySize=auto;html=1;labelBackgroundColor=none;fontColor=#EA6B66;noEdgeStyle=1;orthogonal=1;" edge="1" parent="1" source="16" target="28"><mxGeometry relative="1" as="geometry"><Array as="points"><mxPoint x="1562" y="438.3333333333333"/><mxPoint x="1736" y="475"/></Array></mxGeometry></mxCell><mxCell id="TaskDefinition|Service" value="TaskDefinition" style="edgeStyle=orthogonalEdgeStyle;rounded=1;orthogonalLoop=1;jettySize=auto;html=1;labelBackgroundColor=none;fontColor=#EA6B66;noEdgeStyle=1;orthogonal=1;" edge="1" parent="1" source="17" target="3"><mxGeometry relative="1" as="geometry"><Array as="points"><mxPoint x="562" y="135"/><mxPoint x="738" y="25"/></Array></mxGeometry></mxCell><mxCell id="TargetGroup|Service" value="TargetGroupArn" style="edgeStyle=orthogonalEdgeStyle;rounded=1;orthogonalLoop=1;jettySize=auto;html=1;labelBackgroundColor=none;fontColor=#EA6B66;noEdgeStyle=1;orthogonal=1;" edge="1" parent="1" source="17" target="18"><mxGeometry relative="1" as="geometry"><Array as="points"><mxPoint x="562" y="165"/><mxPoint x="738" y="415"/></Array></mxGeometry></mxCell><mxCell id="DynamicDesiredCountAction|Service" value="DesiredCount" style="edgeStyle=orthogonalEdgeStyle;rounded=1;orthogonalLoop=1;jettySize=auto;html=1;labelBackgroundColor=none;fontColor=#EA6B66;noEdgeStyle=1;orthogonal=1;" edge="1" parent="1" source="17" target="7"><mxGeometry relative="1" as="geometry"><Array as="points"><mxPoint x="564" y="145"/><mxPoint x="738" y="125"/></Array></mxGeometry></mxCell><mxCell id="DiscoveryService|Service" value="RegistryArn" style="edgeStyle=orthogonalEdgeStyle;rounded=1;orthogonalLoop=1;jettySize=auto;html=1;labelBackgroundColor=none;fontColor=#EA6B66;noEdgeStyle=1;orthogonal=1;" edge="1" parent="1" source="17" target="6"><mxGeometry relative="1" as="geometry"><Array as="points"><mxPoint x="564" y="155"/><mxPoint x="738" y="225"/></Array></mxGeometry></mxCell><mxCell id="RulePriorityFunctionRole|RulePriorityFunction" value="Role" style="edgeStyle=orthogonalEdgeStyle;rounded=1;orthogonalLoop=1;jettySize=auto;html=1;labelBackgroundColor=none;fontColor=#EA6B66;noEdgeStyle=1;orthogonal=1;" edge="1" parent="1" source="19" target="20"><mxGeometry relative="1" as="geometry"><Array as="points"><mxPoint x="562" y="500"/><mxPoint x="738" y="625"/></Array></mxGeometry></mxCell><mxCell id="iam  aws&#xA;policy/service-role/awslambdabasicexecutionrole|RulePriorityFunctionRole" value="ManagedPolicyArns" style="edgeStyle=orthogonalEdgeStyle;rounded=1;orthogonalLoop=1;jettySize=auto;html=1;labelBackgroundColor=none;fontColor=#EA6B66;noEdgeStyle=1;orthogonal=1;" edge="1" parent="1" source="20" target="28"><mxGeometry relative="1" as="geometry"><Array as="points"><mxPoint x="812" y="625"/><mxPoint x="900" y="625"/><mxPoint x="1150" y="625"/><mxPoint x="1150" y="625"/><mxPoint x="1400" y="625"/><mxPoint x="1400" y="625"/><mxPoint x="1650" y="625"/><mxPoint x="1738" y="488.3333333333333"/></Array></mxGeometry></mxCell><mxCell id="RulePriorityFunction|HTTPSRulePriorityAction" value="ServiceToken" style="edgeStyle=orthogonalEdgeStyle;rounded=1;orthogonalLoop=1;jettySize=auto;html=1;labelBackgroundColor=none;fontColor=#EA6B66;noEdgeStyle=1;orthogonal=1;" edge="1" parent="1" source="21" target="19"><mxGeometry relative="1" as="geometry"><Array as="points"><mxPoint x="312" y="548.3333333333334"/><mxPoint x="488" y="510"/></Array></mxGeometry></mxCell><mxCell id="EnvControllerAction|HTTPSRulePriorityAction" value="ListenerArn" style="edgeStyle=orthogonalEdgeStyle;rounded=1;orthogonalLoop=1;jettySize=auto;html=1;labelBackgroundColor=none;fontColor=#EA6B66;noEdgeStyle=1;orthogonal=1;" edge="1" parent="1" source="21" target="14"><mxGeometry relative="1" as="geometry"><Array as="points"><mxPoint x="312" y="568.3333333333334"/><mxPoint x="400" y="750"/><mxPoint x="650" y="750"/><mxPoint x="650" y="750"/><mxPoint x="900" y="750"/><mxPoint x="988" y="561.8333333333334"/></Array></mxGeometry></mxCell><mxCell id="RulePriorityFunction|HTTPRuleWithDomainPriorityAction" value="ServiceToken" style="edgeStyle=orthogonalEdgeStyle;rounded=1;orthogonalLoop=1;jettySize=auto;html=1;labelBackgroundColor=none;fontColor=#EA6B66;noEdgeStyle=1;orthogonal=1;" edge="1" parent="1" source="22" target="19"><mxGeometry relative="1" as="geometry"><Array as="points"><mxPoint x="312" y="360"/><mxPoint x="488" y="490"/></Array></mxGeometry></mxCell><mxCell id="EnvControllerAction|HTTPRuleWithDomainPriorityAction" value="ListenerArn" style="edgeStyle=orthogonalEdgeStyle;rounded=1;orthogonalLoop=1;jettySize=auto;html=1;labelBackgroundColor=none;fontColor=#EA6B66;noEdgeStyle=1;orthogonal=1;" edge="1" parent="1" source="22" target="14"><mxGeometry relative="1" as="geometry"><Array as="points"><mxPoint x="312" y="340"/><mxPoint x="400" y="375"/><mxPoint x="650" y="375"/><mxPoint x="650" y="550"/><mxPoint x="900" y="550"/><mxPoint x="984" y="545.8333333333334"/></Array></mxGeometry></mxCell><mxCell id="EnvControllerAction|HTTPListenerRuleWithDomain" value="ListenerArn" style="edgeStyle=orthogonalEdgeStyle;rounded=1;orthogonalLoop=1;jettySize=auto;html=1;labelBackgroundColor=none;fontColor=#EA6B66;noEdgeStyle=1;orthogonal=1;" edge="1" parent="1" source="23" target="14"><mxGeometry relative="1" as="geometry"><Array as="points"><mxPoint x="62" y="390"/><mxPoint x="150" y="275"/><mxPoint x="400" y="275"/><mxPoint x="400" y="325"/><mxPoint x="650" y="325"/><mxPoint x="650" y="500"/><mxPoint x="900" y="500"/><mxPoint x="986" y="537.8333333333334"/></Array></mxGeometry></mxCell><mxCell id="HTTPRuleWithDomainPriorityAction|HTTPListenerRuleWithDomain" value="Priority" style="edgeStyle=orthogonalEdgeStyle;rounded=1;orthogonalLoop=1;jettySize=auto;html=1;labelBackgroundColor=none;fontColor=#EA6B66;noEdgeStyle=1;orthogonal=1;" edge="1" parent="1" source="23" target="22"><mxGeometry relative="1" as="geometry"><Array as="points"><mxPoint x="62" y="410"/><mxPoint x="238" y="350"/></Array></mxGeometry></mxCell><mxCell id="TargetGroup|HTTPSListenerRule" value="TargetGroupArn" style="edgeStyle=orthogonalEdgeStyle;rounded=1;orthogonalLoop=1;jettySize=auto;html=1;labelBackgroundColor=none;fontColor=#EA6B66;noEdgeStyle=1;orthogonal=1;" edge="1" parent="1" source="24" target="18"><mxGeometry relative="1" as="geometry"><Array as="points"><mxPoint x="62" y="486.6666666666667"/><mxPoint x="150" y="425"/><mxPoint x="400" y="425"/><mxPoint x="400" y="425"/><mxPoint x="650" y="425"/><mxPoint x="738" y="435"/></Array></mxGeometry></mxCell><mxCell id="EnvControllerAction|HTTPSListenerRule" value="ListenerArn" style="edgeStyle=orthogonalEdgeStyle;rounded=1;orthogonalLoop=1;jettySize=auto;html=1;labelBackgroundColor=none;fontColor=#EA6B66;noEdgeStyle=1;orthogonal=1;" edge="1" parent="1" source="24" target="14"><mxGeometry relative="1" as="geometry"><Array as="points"><mxPoint x="64" y="500"/><mxPoint x="150" y="483.33333333333337"/><mxPoint x="400" y="483.33333333333337"/><mxPoint x="400" y="700"/><mxPoint x="650" y="700"/><mxPoint x="650" y="700"/><mxPoint x="900" y="700"/><mxPoint x="986" y="553.8333333333334"/></Array></mxGeometry></mxCell><mxCell id="HTTPSRulePriorityAction|HTTPSListenerRule" value="Priority" style="edgeStyle=orthogonalEdgeStyle;rounded=1;orthogonalLoop=1;jettySize=auto;html=1;labelBackgroundColor=none;fontColor=#EA6B66;noEdgeStyle=1;orthogonal=1;" edge="1" parent="1" source="24" target="21"><mxGeometry relative="1" as="geometry"><Array as="points"><mxPoint x="62" y="513.3333333333334"/><mxPoint x="238" y="558.3333333333334"/></Array></mxGeometry></mxCell></root></mxGraphModel>
            </diagram>
          </mxfile>